<svg width="18" height="18" viewBox="0 0 18 18" fill="none" xmlns="http://www.w3.org/2000/svg">
<path d="M6 1C6.55312 1 7 1.44687 7 2V3H11V2C11 1.44687 11.4469 1 12 1C12.5531 1 13 1.44687 13 2V3H14.5C15.3281 3 16 3.67188 16 4.5V6H2V4.5C2 3.67188 2.67188 3 3.5 3H5V2C5 1.44687 5.44688 1 6 1ZM2 7H16V15.5C16 16.3281 15.3281 17 14.5 17H3.5C2.67188 17 2 16.3281 2 15.5V7ZM4 9.5V10.5C4 10.775 4.225 11 4.5 11H5.5C5.775 11 6 10.775 6 10.5V9.5C6 9.225 5.775 9 5.5 9H4.5C4.225 9 4 9.225 4 9.5ZM8 9.5V10.5C8 10.775 8.225 11 8.5 11H9.5C9.775 11 10 10.775 10 10.5V9.5C10 9.225 9.775 9 9.5 9H8.5C8.225 9 8 9.225 8 9.5ZM12.5 9C12.225 9 12 9.225 12 9.5V10.5C12 10.775 12.225 11 12.5 11H13.5C13.775 11 14 10.775 14 10.5V9.5C14 9.225 13.775 9 13.5 9H12.5ZM4 13.5V14.5C4 14.775 4.225 15 4.5 15H5.5C5.775 15 6 14.775 6 14.5V13.5C6 13.225 5.775 13 5.5 13H4.5C4.225 13 4 13.225 4 13.5ZM8.5 13C8.225 13 8 13.225 8 13.5V14.5C8 14.775 8.225 15 8.5 15H9.5C9.775 15 10 14.775 10 14.5V13.5C10 13.225 9.775 13 9.5 13H8.5ZM12 13.5V14.5C12 14.775 12.225 15 12.5 15H13.5C13.775 15 14 14.775 14 14.5V13.5C14 13.225 13.775 13 13.5 13H12.5C12.225 13 12 13.225 12 13.5Z" fill="#183280"/>
</svg>
