<svg width="12" height="12" viewBox="0 0 12 12" fill="none" xmlns="http://www.w3.org/2000/svg">
<g clip-path="url(#clip0_142_1725)">
<path d="M11.6126 2.07206C12.0785 1.60622 12.0785 0.849702 11.6126 0.383864C11.1468 -0.0819748 10.3903 -0.0819748 9.92442 0.383864L6.0002 4.31181L2.07225 0.38759C1.60641 -0.0782481 0.849885 -0.0782481 0.384047 0.38759C-0.0817917 0.853429 -0.0817917 1.60995 0.384047 2.07579L4.312 6.00001L0.387774 9.92796C-0.0780649 10.3938 -0.0780649 11.1503 0.387774 11.6162C0.853612 12.082 1.61013 12.082 2.07597 11.6162L6.0002 7.68821L9.92815 11.6124C10.394 12.0783 11.1505 12.0783 11.6163 11.6124C12.0822 11.1466 12.0822 10.3901 11.6163 9.92424L7.6884 6.00001L11.6126 2.07206Z" fill="#717171"/>
</g>
<defs>
<clipPath id="clip0_142_1725">
<rect width="12" height="12" fill="white"/>
</clipPath>
</defs>
</svg>
