<svg width="18" height="18" viewBox="0 0 18 18" fill="none" xmlns="http://www.w3.org/2000/svg">
<path d="M10.1805 17.618C11.8882 15.4808 15.7831 10.301 15.7831 7.39154C15.7831 3.86288 12.9202 1 9.39154 1C5.86288 1 3 3.86288 3 7.39154C3 10.301 6.89485 15.4808 8.60258 17.618C9.01204 18.1273 9.77104 18.1273 10.1805 17.618ZM9.39154 5.26103C9.95659 5.26103 10.4985 5.48549 10.898 5.88504C11.2976 6.28459 11.5221 6.82649 11.5221 7.39154C11.5221 7.95659 11.2976 8.49849 10.898 8.89804C10.4985 9.29759 9.95659 9.52205 9.39154 9.52205C8.82649 9.52205 8.28459 9.29759 7.88504 8.89804C7.48549 8.49849 7.26103 7.95659 7.26103 7.39154C7.26103 6.82649 7.48549 6.28459 7.88504 5.88504C8.28459 5.48549 8.82649 5.26103 9.39154 5.26103Z" fill="#183280"/>
</svg>
