<svg width="23" height="20" viewBox="0 0 23 20" fill="none" xmlns="http://www.w3.org/2000/svg">
<g clip-path="url(#clip0_112_619)">
<path fill-rule="evenodd" clip-rule="evenodd" d="M20.5648 0.477685C20.8355 0.362119 21.1317 0.322261 21.4227 0.362259C21.7137 0.402257 21.9888 0.52065 22.2194 0.705113C22.45 0.889576 22.6276 1.13337 22.7338 1.41111C22.84 1.68885 22.8709 1.9904 22.8232 2.28435L20.3392 17.5699C20.0982 19.0444 18.5036 19.8899 17.1707 19.1555C16.0557 18.541 14.3997 17.5944 12.9102 16.6066C12.1654 16.1121 9.88405 14.5288 10.1644 13.4021C10.4054 12.4388 14.2387 8.8188 16.4292 6.66657C17.289 5.82102 16.8969 5.33324 15.8816 6.11102C13.3603 8.04213 9.31234 10.9788 7.97396 11.8055C6.79329 12.5344 6.17777 12.6588 5.44177 12.5344C4.099 12.3077 2.85372 11.9566 1.83734 11.5288C0.463908 10.951 0.530718 9.03546 1.83624 8.47768L20.5648 0.477685Z" fill="#0088CC"/>
</g>
<defs>
<clipPath id="clip0_112_619">
<rect width="23" height="20" fill="white" transform="translate(-0.000976562)"/>
</clipPath>
</defs>
</svg>
