<?xml version="1.0" encoding="UTF-8" standalone="no"?>
<svg
   width="30"
   height="15"
   viewBox="0 0 30 15"
   fill="none"
   version="1.1"
   id="svg4"
   sodipodi:docname="arrow-right.svg"
   xmlns:inkscape="http://www.inkscape.org/namespaces/inkscape"
   xmlns:sodipodi="http://sodipodi.sourceforge.net/DTD/sodipodi-0.dtd"
   xmlns="http://www.w3.org/2000/svg"
   xmlns:svg="http://www.w3.org/2000/svg">
  <defs
     id="defs8" />
  <sodipodi:namedview
     id="namedview6"
     pagecolor="#ffffff"
     bordercolor="#000000"
     borderopacity="0.25"
     inkscape:showpageshadow="2"
     inkscape:pageopacity="0.0"
     inkscape:pagecheckerboard="0"
     inkscape:deskcolor="#d1d1d1" />
  <path
     d="M24.9192 1.16686C24.7173 0.926716 24.4063 0.948347 24.2246 1.21518C24.0429 1.48201 24.0593 1.893 24.2612 2.13315L28.2266 6.85H0.491803C0.220188 6.85 0 7.14102 0 7.5C0 7.85898 0.220187 8.15 0.491803 8.15H28.2266L24.2612 12.8669C24.0593 13.107 24.0429 13.518 24.2246 13.7848C24.4063 14.0517 24.7173 14.0733 24.9192 13.8331L29.8372 7.98314C29.9408 7.85987 30 7.68427 30 7.5C30 7.31573 29.9408 7.14013 29.8372 7.01686L24.9192 1.16686Z"
     fill="#D7D7D7"
     id="path2" />
</svg>
